<?xml version="1.0" encoding="UTF-8" standalone="no"?>
<!-- Created with Inkscape (http://www.inkscape.org/) -->

<svg
   xmlns:dc="http://purl.org/dc/elements/1.1/"
   xmlns:cc="http://creativecommons.org/ns#"
   xmlns:rdf="http://www.w3.org/1999/02/22-rdf-syntax-ns#"
   xmlns:svg="http://www.w3.org/2000/svg"
   xmlns="http://www.w3.org/2000/svg"
   xmlns:sodipodi="http://sodipodi.sourceforge.net/DTD/sodipodi-0.dtd"
   xmlns:inkscape="http://www.inkscape.org/namespaces/inkscape"
   version="1.1"
   id="svg10"
   width="161"
   height="161"
   viewBox="0 0 161 161"
   sodipodi:docname="Logo_green.svg"
   inkscape:version="0.92.4 (5da689c313, 2019-01-14)">
  <metadata
     id="metadata16">
    <rdf:RDF>
      <cc:Work
         rdf:about="">
        <dc:format>image/svg+xml</dc:format>
        <dc:type
           rdf:resource="http://purl.org/dc/dcmitype/StillImage" />
        <dc:title></dc:title>
      </cc:Work>
    </rdf:RDF>
  </metadata>
  <defs
     id="defs14" />
  <sodipodi:namedview
     pagecolor="#ffffff"
     bordercolor="#666666"
     borderopacity="1"
     objecttolerance="10"
     gridtolerance="10"
     guidetolerance="10"
     inkscape:pageopacity="0"
     inkscape:pageshadow="2"
     inkscape:window-width="1600"
     inkscape:window-height="837"
     id="namedview12"
     showgrid="false"
     inkscape:zoom="5.4032257"
     inkscape:cx="62.603824"
     inkscape:cy="99.310009"
     inkscape:window-x="-8"
     inkscape:window-y="-8"
     inkscape:window-maximized="1"
     inkscape:current-layer="svg10" />
  <path
     style="fill:#ffffff;fill-opacity:1;stroke-width:0.24029851"
     d=""
     id="path4532"
     inkscape:connector-curvature="0" />
  <path
     style="fill:#ffffff;fill-opacity:1;stroke-width:0.24029851"
     d=""
     id="path4534"
     inkscape:connector-curvature="0" />
  <path
     style="fill:#ffffff;fill-opacity:1;stroke-width:0.24029851"
     d=""
     id="path4552"
     inkscape:connector-curvature="0" />
  <path
     style="fill:#76d03b;fill-opacity:1;stroke-width:0.06029883"
     d=""
     id="path81"
     inkscape:connector-curvature="0" />
  <path
     style="fill:#76d03b;fill-opacity:1;stroke-width:0.06029883"
     d=""
     id="path83"
     inkscape:connector-curvature="0" />
  <path
     style="fill:#76d03b;fill-opacity:1;stroke-width:0.06029883"
     d=""
     id="path85"
     inkscape:connector-curvature="0" />
  <path
     style="fill:#76d03b;fill-opacity:1;stroke-width:0.06029883"
     d=""
     id="path87"
     inkscape:connector-curvature="0" />
  <path
     style="fill:#76d03b;fill-opacity:1;stroke-width:0.06029883"
     d=""
     id="path89"
     inkscape:connector-curvature="0" />
  <path
     style="fill:#76d03b;fill-opacity:1;stroke-width:0.06029883"
     d=""
     id="path97"
     inkscape:connector-curvature="0" />
  <path
     style="fill:#76d03b;fill-opacity:1;stroke-width:0.06029883"
     d=""
     id="path99"
     inkscape:connector-curvature="0" />
  <g
     id="g133"
     transform="matrix(0.87593133,0,0,1.0942063,242.61298,-10.596704)">
    <path
       inkscape:connector-curvature="0"
       id="path20"
       d="m -156.93307,121.89457 c -0.92395,-1.16173 -1.11988,-1.31314 -1.69926,-1.31314 -0.32158,0 -0.58358,-0.14164 -0.58358,-0.31549 0,-0.37094 -1.23277,-1.6069 -1.60276,-1.6069 -0.14014,0 -0.52809,-0.21496 -0.8621,-0.47769 -0.47642,-0.37475 -1.14368,-0.51264 -3.09622,-0.63982 -1.67018,-0.10878 -2.56874,-0.27034 -2.73157,-0.49112 -0.15807,-0.21432 -0.99567,-0.37932 -2.40298,-0.47334 -1.47757,-0.0987 -2.30098,-0.26698 -2.60535,-0.53238 -0.3055,-0.26639 -1.03886,-0.41501 -2.33925,-0.47406 -1.80062,-0.0818 -1.90588,-0.0581 -2.12985,0.47993 -0.64381,1.54642 -1.7346,2.05128 -2.53089,1.17139 -0.23688,-0.26174 -0.81615,-0.54821 -1.28727,-0.63659 -0.47112,-0.0884 -1.0714,-0.36083 -1.33396,-0.60545 -0.26256,-0.24461 -0.67326,-0.44475 -0.91267,-0.44475 -0.23941,0 -0.43529,-0.1622 -0.43529,-0.36045 0,-0.19824 -0.11045,-0.36044 -0.24545,-0.36044 -0.13499,0 -0.36862,-0.27034 -0.51916,-0.60075 -0.15055,-0.33041 -0.40653,-0.60075 -0.56886,-0.60075 -0.16232,0 -0.36838,-0.39046 -0.45791,-0.86769 -0.10709,-0.57085 -0.32176,-0.90927 -0.62749,-0.98922 -0.25559,-0.0668 -0.46471,-0.22241 -0.46471,-0.34571 0,-0.38869 -1.59239,-1.88245 -2.00674,-1.88245 -0.21793,0 -0.39624,-0.0976 -0.39624,-0.21679 0,-0.32643 -1.38826,-0.74441 -2.47243,-0.74441 -0.61502,0 -1.06323,-0.14265 -1.24977,-0.39776 -0.19256,-0.26334 -0.76998,-0.43686 -1.70858,-0.51345 -0.86986,-0.071 -1.63919,-0.28871 -1.99081,-0.56343 -0.39252,-0.30668 -0.96905,-0.44774 -1.82991,-0.44774 -0.89297,0 -1.43371,-0.13914 -1.8678,-0.4806 -0.33604,-0.26433 -0.73503,-0.4806 -0.88664,-0.4806 -0.15161,0 -0.72929,-0.20208 -1.28374,-0.44908 -0.66625,-0.2968 -1.85421,-0.49776 -3.50338,-0.59265 -1.70875,-0.0983 -2.61769,-0.25623 -2.88358,-0.50096 -0.21356,-0.19656 -0.63497,-0.58205 -0.93647,-0.85665 -0.3015,-0.27459 -0.8692,-0.56346 -1.26157,-0.64194 -0.39236,-0.0785 -0.71338,-0.27979 -0.71338,-0.44737 0,-0.35091 -0.52834,-0.59642 -1.28349,-0.59642 -0.28781,0 -0.65836,-0.21627 -0.82343,-0.4806 -0.18554,-0.2971 -0.56038,-0.4806 -0.98176,-0.4806 -0.37643,0 -0.87634,-0.21517 -1.11655,-0.48059 -0.23921,-0.264334 -0.6675,-0.480604 -0.95175,-0.480604 -0.28425,0 -0.88324,-0.27034 -1.33108,-0.60075 -0.44785,-0.33041 -1.06268,-0.60074 -1.36629,-0.60074 -0.30362,0 -0.68709,-0.21627 -0.85216,-0.4806 -0.16508,-0.26433 -0.4123,-0.4806 -0.54938,-0.4806 -0.13709,0 -0.43442,-0.21627 -0.66074,-0.48059 -0.22633,-0.26433 -0.58474,-0.4806 -0.79648,-0.4806 -0.21173,0 -0.65991,-0.21627 -0.99595,-0.4806 -0.43045,-0.33859 -0.97484,-0.48059 -1.84241,-0.48059 -0.97119,0 -1.29486,-0.10157 -1.53157,-0.4806 -0.2575,-0.41233 -0.56038,-0.4806 -2.13205,-0.4806 -1.36351,0 -2.0235,-0.11507 -2.58118,-0.45002 -0.41209,-0.24751 -1.39351,-0.52144 -2.18093,-0.60872 -0.78743,-0.0873 -1.59894,-0.31007 -1.80338,-0.49507 -0.20443,-0.18502 -0.96592,-0.41447 -1.6922,-0.5099 -0.86367,-0.11348 -1.42914,-0.32688 -1.6345,-0.61684 -0.1729,-0.2441 -0.60586,-0.44333 -0.96347,-0.44333 -0.38922,0 -0.76974,-0.19258 -0.94961,-0.4806 -0.16507,-0.26432 -0.49873,-0.48059 -0.74145,-0.48059 -0.24272,0 -0.63704,-0.21627 -0.87625,-0.4806 -0.23922,-0.26433 -0.60843,-0.4806 -0.82049,-0.4806 -0.21205,0 -0.52061,-0.21627 -0.68569,-0.48059 -0.16507,-0.26433 -0.40735,-0.4806 -0.53839,-0.4806 -0.13105,0 -0.43897,-0.18924 -0.68426,-0.42052 -0.2453,-0.23129 -0.79377,-0.69086 -1.21882,-1.02127 -0.42506,-0.33042 -1.02491,-0.81702 -1.33301,-1.08135 -0.30811,-0.26433 -0.8399,-0.69686 -1.18177,-0.96119 -1.61683,-1.2501 -3.90799,-3.25432 -5.08198,-4.445525 -0.4559,-0.462575 -1.05371,-1.068694 -1.32848,-1.346933 -0.44799,-0.453655 -0.48947,-0.726586 -0.40171,-2.643284 0.0545,-1.189814 0.27083,-2.563526 0.488,-3.098589 0.31522,-0.77663 0.39216,-1.920093 0.40068,-5.955107 0.008,-3.876673 0.0912,-5.186908 0.37099,-5.856584 0.46112,-1.103616 0.45623,-2.202782 -0.0171,-3.830802 -0.26641,-0.916446 -0.49816,-1.298552 -0.78757,-1.298552 -0.22555,0 -0.65041,-0.168334 -0.94415,-0.374073 -0.47867,-0.335274 -0.53406,-0.580171 -0.53406,-2.361098 0,-1.756217 -0.0628,-2.043554 -0.54067,-2.4737 -0.773,-0.695801 -1.18988,-0.790609 -2.34008,-0.532177 -0.61588,0.138378 -1.12554,0.141918 -1.29115,0.009 -0.15049,-0.120815 -1.26017,-0.264848 -2.46595,-0.320073 -1.5608,-0.07148 -2.30034,-0.208425 -2.56731,-0.475387 -0.20623,-0.206239 -0.9405,-0.449998 -1.6317,-0.541688 -0.69119,-0.09169 -1.52394,-0.376909 -1.85055,-0.633814 -0.3266,-0.256906 -0.9611,-0.467102 -1.41,-0.467102 -0.49712,0 -0.86927,-0.13835 -0.95199,-0.353912 -0.0747,-0.194651 -0.53087,-0.426587 -1.01373,-0.515411 -0.48285,-0.08883 -1.1358,-0.362104 -1.45099,-0.607283 -0.3152,-0.245181 -0.73533,-0.445782 -0.93364,-0.445782 -0.19831,0 -0.61627,-0.275906 -0.92879,-0.613127 -0.77508,-0.836325 -0.83153,-3.191904 -0.0876,-3.65648 0.30454,-0.190187 0.4806,-0.560381 0.4806,-1.010542 0,-0.464471 0.16637,-0.799447 0.48059,-0.967612 0.26433,-0.141464 0.4806,-0.452913 0.4806,-0.692108 0,-0.239193 0.21627,-0.630618 0.4806,-0.869833 0.26433,-0.239214 0.48059,-0.671752 0.48059,-0.961194 0,-0.289442 0.21627,-0.721979 0.4806,-0.961194 0.26433,-0.239214 0.4806,-0.630639 0.4806,-0.869832 0,-0.239196 0.21627,-0.550644 0.4806,-0.692108 0.26432,-0.141464 0.48246,-0.38857 0.48474,-0.549125 0.002,-0.160556 0.27262,-0.546571 0.60075,-0.857813 0.32813,-0.311242 0.5966,-0.770812 0.5966,-1.021269 0,-0.250456 0.16014,-0.455375 0.35586,-0.455375 0.19573,0 0.42372,-0.270336 0.50665,-0.600746 0.0829,-0.330411 0.30126,-0.600747 0.48518,-0.600747 0.18392,0 0.33439,-0.09327 0.33439,-0.207256 0,-0.296382 1.26684,-1.908832 2.39799,-3.052211 0.53141,-0.537148 0.96619,-1.092241 0.96619,-1.233541 0,-0.1413 0.21627,-0.313465 0.4806,-0.382588 0.26433,-0.06912 0.4806,-0.298004 0.4806,-0.508623 0,-0.21062 0.15839,-0.382945 0.35199,-0.382945 0.1936,0 0.46774,-0.216268 0.6092,-0.480597 0.14147,-0.264328 0.35973,-0.480597 0.48504,-0.480597 0.19222,0 1.41296,-1.042122 3.11783,-2.66164 0.21932,-0.208342 0.57975,-0.448251 0.80094,-0.53313 0.22119,-0.08488 0.40216,-0.319921 0.40216,-0.522315 0,-0.213275 0.21152,-0.367989 0.5031,-0.367989 0.301,0 0.55357,-0.193056 0.62877,-0.480597 0.0691,-0.264329 0.30894,-0.480597 0.53294,-0.480597 0.22399,0 0.62519,-0.20304 0.89156,-0.451201 0.26637,-0.248159 0.7193,-0.525782 1.00651,-0.616939 0.28721,-0.09116 0.5222,-0.318594 0.5222,-0.505416 0,-0.186822 0.26237,-0.405529 0.58306,-0.486015 0.32068,-0.08049 0.76998,-0.352883 0.99844,-0.605325 0.22845,-0.252442 0.59085,-0.458985 0.80532,-0.458985 0.21447,0 0.57513,-0.216269 0.80145,-0.480597 0.22633,-0.264328 0.62502,-0.480597 0.886,-0.480597 0.26097,0 0.59023,-0.216269 0.7317,-0.480597 0.14146,-0.264328 0.45291,-0.480597 0.6921,-0.480597 0.2392,0 0.63062,-0.216269 0.86984,-0.480597 0.23921,-0.264329 0.63353,-0.480597 0.87625,-0.480597 0.24272,0 0.57638,-0.216269 0.74145,-0.480597 0.16508,-0.264329 0.53938,-0.480597 0.83178,-0.480597 0.61098,0 1.75574,-0.475155 1.75574,-0.728755 0,-0.09406 0.45675,-0.244052 1.01499,-0.333319 0.55825,-0.08927 1.19866,-0.32852 1.42314,-0.531673 0.22448,-0.203153 0.87612,-0.428492 1.44807,-0.500752 0.57196,-0.07226 1.24051,-0.306399 1.48567,-0.5203084 0.65984,-0.575717 7.58177,-0.574734 8.23984,0.0012 0.24898,0.2178874 1.12298,0.4634444 1.97985,0.5562504 0.84375,0.09139 1.76504,0.317477 2.04731,0.502426 0.28227,0.184948 1.15987,0.408564 1.95023,0.496924 0.79036,0.08836 1.61284,0.31312 1.82774,0.499467 0.2149,0.186347 0.79949,0.405148 1.2991,0.486223 0.49961,0.08108 1.10776,0.346789 1.35144,0.590475 0.24369,0.243686 0.7134,0.443065 1.04382,0.443065 0.33041,0 0.81701,0.216268 1.08134,0.480597 0.26433,0.264328 0.75093,0.480597 1.08134,0.480597 0.33041,0 0.60075,0.123247 0.60075,0.273882 0,0.150635 0.17865,0.404518 0.39701,0.564183 0.36337,0.265703 0.35319,0.334123 -0.12015,0.807462 -0.28444,0.284438 -0.51716,0.675556 -0.51716,0.869153 0,0.193596 -0.21627,0.467736 -0.4806,0.6092 -0.26433,0.141465 -0.48059,0.402993 -0.48059,0.581175 0,0.178182 -0.21627,0.380522 -0.4806,0.449646 -0.26433,0.06912 -0.4806,0.290717 -0.4806,0.49243 0,0.201713 -0.21627,0.435392 -0.4806,0.519287 -0.26432,0.08389 -0.48059,0.361517 -0.48059,0.616939 0,0.304205 -0.16579,0.464404 -0.4806,0.464404 -0.3204,0 -0.4806,0.160199 -0.4806,0.480597 0,0.320398 -0.1602,0.480597 -0.48059,0.480597 -0.26433,0 -0.4806,0.09732 -0.4806,0.216269 0,0.281602 -1.66482,1.946418 -1.94642,1.946418 -0.11895,0 -0.21627,0.158396 -0.21627,0.351993 0,0.193596 -0.21627,0.467736 -0.48059,0.609201 -0.26433,0.141464 -0.4806,0.415604 -0.4806,0.609201 0,0.193596 -0.21627,0.351993 -0.4806,0.351993 -0.3204,0 -0.4806,0.160199 -0.4806,0.480597 0,0.270465 -0.1602,0.480597 -0.36639,0.480597 -0.20152,0 -0.46059,0.247746 -0.57571,0.550547 -0.11513,0.302801 -0.37103,0.684756 -0.56868,0.848788 -0.19765,0.164032 -0.43037,0.771782 -0.51716,1.350557 -0.0868,0.578774 -0.30885,1.110278 -0.49346,1.18112 -0.18462,0.07084 -0.40774,0.539991 -0.49584,1.042552 -0.0881,0.502562 -0.31526,1.03741 -0.50481,1.188552 -0.18955,0.151141 -0.4118,0.688645 -0.49388,1.194452 -0.0821,0.505807 -0.34748,1.132443 -0.58979,1.392523 -0.29906,0.32101 -0.44054,0.839631 -0.44054,1.614873 0,0.628102 -0.10843,1.209011 -0.24095,1.290915 -0.16107,0.09954 -0.16107,0.298176 0,0.599131 0.13252,0.247618 0.24095,0.936643 0.24095,1.531163 0,0.869905 -0.0938,1.110729 -0.4806,1.233483 -0.26433,0.0839 -0.4806,0.30745 -0.4806,0.496791 0,0.189339 -0.18923,0.344992 -0.42052,0.345895 -0.23129,9.62e-4 -0.65301,0.352341 -0.93717,0.780971 -0.45415,0.685064 -0.53721,1.258304 -0.68666,4.739208 -0.1441,3.356107 -0.23936,4.048025 -0.62478,4.538001 -0.25011,0.31797 -0.45475,0.763053 -0.45475,0.989073 0,0.226023 -0.21627,0.606668 -0.4806,0.845882 -0.26432,0.239215 -0.48059,0.576573 -0.48059,0.749684 0,0.173113 -0.21627,0.430494 -0.4806,0.571958 -0.26433,0.141464 -0.4806,0.415604 -0.4806,0.6092 0,0.193597 -0.0899,0.351994 -0.19983,0.351994 -0.35353,0 -1.72255,2.330168 -1.72255,2.931913 0,0.320068 0.21626,0.814079 0.48059,1.097804 0.26433,0.283723 0.4806,0.735734 0.4806,1.004467 0,0.268736 0.21627,0.623671 0.4806,0.788746 0.26432,0.165076 0.48059,0.387448 0.48059,0.49416 0,0.256341 1.25455,1.354495 1.56194,1.367229 0.13217,0.0055 0.61877,0.440366 1.08135,0.966427 0.46257,0.526062 0.91332,0.957537 1.00166,0.958835 0.0883,0.0012 0.59532,0.407863 1.12664,0.903479 1.97647,1.843664 2.45435,2.222761 2.80197,2.222761 0.19596,0 0.35629,0.172325 0.35629,0.382945 0,0.210619 0.21627,0.439498 0.4806,0.508623 0.26433,0.06912 0.4806,0.277946 0.4806,0.464047 0,0.186104 0.27033,0.441152 0.60074,0.566773 0.33041,0.125621 0.60075,0.393282 0.60075,0.594799 0,0.201517 0.1584,0.366395 0.35199,0.366395 0.1936,0 0.46774,0.216269 0.6092,0.480597 0.14147,0.264329 0.40832,0.480597 0.59301,0.480597 0.18469,0 0.40111,0.189235 0.48093,0.420523 0.29227,0.846852 1.83526,1.585114 3.53842,1.692994 1.18116,0.07481 1.71787,0.222598 2.01971,0.556128 0.22609,0.249828 0.69271,0.454236 1.03693,0.454236 0.3656,0 0.75065,0.199844 0.92598,0.480597 0.16508,0.264328 0.4656,0.480597 0.66784,0.480597 0.20223,0 0.81784,0.432537 1.36801,0.961194 0.55018,0.528657 1.07938,0.961194 1.17602,0.961194 0.0966,0 0.24433,0.216269 0.32823,0.480597 0.0839,0.264328 0.30745,0.480597 0.49679,0.480597 0.18934,0 0.34425,0.219662 0.34425,0.488137 0,0.268479 0.18924,0.556126 0.42053,0.639221 0.23128,0.0831 0.61397,0.350038 0.8504,0.593208 0.23644,0.24317 0.6922,0.44212 1.01282,0.44212 0.33699,0 0.69144,0.20276 0.84013,0.4806 0.14147,0.26433 0.42122,0.48059 0.62167,0.48059 0.20046,0 0.7745,0.23599 1.27566,0.52443 l 0.9112,0.52442 1.00612,-0.52442 c 0.55337,-0.28844 1.37513,-0.52443 1.82614,-0.52443 0.52729,0 0.93211,-0.15978 1.13402,-0.44759 0.23298,-0.33211 0.70986,-0.47618 1.84816,-0.55835 1.06218,-0.0767 1.62478,-0.23467 1.82873,-0.51359 0.16535,-0.226131 0.61957,-0.402854 1.03542,-0.402854 0.44813,0 0.86492,-0.175951 1.05486,-0.445309 0.19325,-0.274077 0.77269,-0.51371 1.50691,-0.623192 0.65611,-0.09784 1.41007,-0.329985 1.67548,-0.515885 0.68167,-0.477459 4.41421,-0.463981 5.10294,0.01843 0.27988,0.196038 1.30419,0.425138 2.27623,0.509118 1.14576,0.09898 1.87006,0.281553 2.05935,0.519083 0.16125,0.202341 0.82453,0.417569 1.48132,0.480676 0.90453,0.08692 1.21763,0.222517 1.30752,0.566283 0.10176,0.38911 0.3564,0.45199 1.83034,0.45199 1.41065,0 1.73975,-0.074 1.86899,-0.42052 0.0863,-0.23128 0.35321,-0.561821 0.5932,-0.734519 0.23999,-0.1727 0.43635,-0.606261 0.43635,-0.963467 0,-0.389221 0.19258,-0.769734 0.4806,-0.949604 0.26432,-0.165076 0.48059,-0.435412 0.48059,-0.600747 0,-0.165335 0.21627,-0.43567 0.4806,-0.600746 0.26433,-0.165075 0.4806,-0.444663 0.4806,-0.621306 0,-0.434104 0.78408,-1.116549 1.28284,-1.116549 0.22217,0 0.58912,-0.216269 0.81545,-0.480597 0.36086,-0.421453 0.70887,-0.480597 2.82783,-0.480597 2.11896,0 2.46696,0.05914 2.82782,0.480597 0.22633,0.264328 0.65688,0.480597 0.9568,0.480597 0.29991,0 0.68036,0.216268 0.84543,0.480597 0.19148,0.306608 0.56038,0.480597 1.019,0.480597 0.49755,0 0.71886,0.11789 0.71886,0.382944 0,0.210619 0.21268,0.438564 0.47263,0.506542 0.25996,0.06798 0.53758,0.32819 0.61694,0.57825 0.0794,0.250059 0.27337,0.454652 0.43112,0.454652 0.15775,0 0.55597,0.339972 0.88493,0.755496 0.32896,0.415522 0.78734,0.956193 1.01863,1.201492 0.23129,0.245297 0.42052,0.648668 0.42052,0.896378 0,0.24772 0.15455,0.88843 0.34344,1.42381 0.29695,0.84163 0.29734,1.14666 0.003,2.25297 -0.18732,0.70376 -0.34187,1.57136 -0.34344,1.928 -0.004,1.02263 -0.95802,1.8747 -2.09793,1.8747 -0.68948,0 -1.14062,0.16867 -1.60684,0.60074 -0.35652,0.33041 -0.72514,0.60075 -0.81915,0.60075 -0.094,0 -0.27768,0.19761 -0.40814,0.43913 -0.42247,0.7821 -0.7958,1.59367 -0.93101,2.02393 -0.0872,0.27752 -0.37699,0.42052 -0.85214,0.42052 -0.47405,0 -0.80784,0.16417 -0.97719,0.4806 -0.14147,0.26433 -0.42763,0.4806 -0.63593,0.4806 -0.20829,0 -0.89534,0.43253 -1.52676,0.96119 l -1.14804,0.96119 h -2.14135 c -1.3451,0 -2.24858,0.10723 -2.42971,0.28836 -0.4846,0.4846 -0.35843,2.0668 0.19223,2.41069 0.2983,0.18629 0.4806,0.56039 0.4806,0.986224 0,0.37733 0.20208,0.9731 0.44907,1.32391 0.24699,0.35081 0.52461,0.88114 0.61694,1.17851 0.0923,0.29737 0.32279,0.54067 0.51213,0.54067 0.18933,0 0.34425,0.14641 0.34425,0.32536 0,0.17895 0.27034,0.61706 0.60075,0.97358 0.33041,0.35651 0.60308,0.77781 0.60594,0.9362 0.003,0.1584 0.35429,0.57856 0.78097,0.93368 1.8903,1.57332 2.30243,1.87745 2.54417,1.87745 0.14148,0 0.37297,0.21627 0.51444,0.4806 0.14146,0.26433 0.40832,0.4806 0.59301,0.4806 0.18469,0 0.40268,0.21073 0.48443,0.4683 0.0817,0.25757 0.35937,0.53519 0.61694,0.61694 0.25757,0.0817 0.46831,0.29198 0.46831,0.46718 0,0.3686 0.52097,0.61026 1.31558,0.61026 0.30546,0 0.61534,0.15624 0.68861,0.34719 0.0733,0.19096 0.5322,0.42204 1.01983,0.51352 0.48762,0.0915 1.08805,0.36778 1.33427,0.614 0.24621,0.24622 0.66394,0.44767 0.92827,0.44767 0.26432,0 0.69686,0.21627 0.96119,0.4806 0.26433,0.26433 0.72492,0.4806 1.02354,0.4806 0.29862,0 0.66838,0.20086 0.8217,0.44636 0.1686,0.26997 0.67362,0.49933 1.27795,0.58038 0.54955,0.0737 1.18003,0.29335 1.40106,0.48809 0.22103,0.19474 0.76386,0.43108 1.2063,0.52521 0.9241,0.1966 0.92812,0.30707 0.12466,3.42505 -0.3414,1.32486 -0.54891,1.74088 -0.86902,1.74217 -0.23128,9.6e-4 -0.63679,0.21796 -0.90112,0.48229 -0.67089,0.67089 -1.69274,0.6133 -2.28283,-0.12865 z m -84.24308,-46.150179 c 0.40664,-0.342161 0.74119,-0.855799 0.74346,-1.141418 0.006,-0.76684 -1.02034,-2.764317 -1.50599,-2.930733 -0.27177,-0.09313 -0.42052,-0.392653 -0.42052,-0.846764 0,-0.442423 -0.178,-0.813828 -0.4806,-1.002804 -0.26433,-0.165075 -0.48059,-0.478826 -0.48059,-0.697224 0,-0.477937 -0.48159,-0.688801 -1.57314,-0.688801 -0.88009,0 -1.31045,0.488782 -1.31045,1.488339 0,0.307308 -0.21626,0.693805 -0.48059,0.85888 -0.37632,0.235017 -0.4806,0.560381 -0.4806,1.499592 0,1.216142 0.5544,2.160652 1.26824,2.160652 0.16887,0 0.49222,0.216268 0.71854,0.480597 0.22633,0.264328 0.62245,0.480597 0.88027,0.480597 0.25782,0 0.54028,0.115711 0.62769,0.257138 0.16887,0.273241 1.00331,0.663448 1.47302,0.688823 0.15506,0.0084 0.61463,-0.264715 1.02126,-0.606874 z m -3.52596,-20.137774 c 0.23129,-0.175572 0.42052,-0.470524 0.42052,-0.65545 0,-0.184924 0.21627,-0.47129 0.4806,-0.636366 0.27098,-0.16923 0.4806,-0.560381 0.4806,-0.896811 0,-0.33643 0.20961,-0.72758 0.48059,-0.896811 0.26433,-0.165075 0.4806,-0.527702 0.4806,-0.805838 0,-0.278136 0.20839,-0.694292 0.46309,-0.924791 0.2547,-0.230502 0.53453,-0.841939 0.62185,-1.358754 0.0873,-0.516812 0.31929,-1.029499 0.51549,-1.139303 0.19621,-0.109805 0.41723,-0.650536 0.49114,-1.201625 0.0739,-0.551091 0.21094,-1.001982 0.30448,-1.001982 0.23296,0 0.72783,-1.126077 0.72783,-1.656154 0,-0.237624 0.21627,-0.627766 0.4806,-0.86698 0.37488,-0.339264 0.48059,-0.740113 0.48059,-1.822319 0,-1.550773 -0.37417,-2.142607 -1.3546,-2.142607 -0.32966,0 -0.82015,-0.118152 -1.08998,-0.26256 -0.35479,-0.189881 -0.56327,-0.189881 -0.75315,0 -0.14441,0.144408 -0.5214,0.26256 -0.83775,0.26256 -0.37309,0 -0.61934,0.168858 -0.70086,0.480597 -0.0691,0.264329 -0.27145,0.480597 -0.44962,0.480597 -0.17817,0 -0.57106,0.21747 -0.87309,0.483264 -0.30204,0.265797 -1.02542,0.897198 -1.60752,1.403115 -0.98575,0.856734 -1.06611,1.017307 -1.17119,2.340241 -0.0767,0.965772 -0.25713,1.557988 -0.56365,1.85028 -0.25318,0.241413 -0.45417,0.768167 -0.45847,1.201492 -0.004,0.424384 -0.1664,0.981511 -0.36044,1.238059 -0.44993,0.594861 -0.44993,1.355819 0,1.950681 0.19404,0.256547 0.35624,0.981146 0.36044,1.610221 0.006,0.839937 0.13531,1.25308 0.48824,1.555269 0.26433,0.226325 0.4806,0.536481 0.4806,0.689234 0,0.382221 0.97714,1.030965 1.56194,1.037001 0.26433,0.0027 0.66983,-0.138686 0.90112,-0.31426 z"
       style="fill:#76d03b;fill-opacity:1;stroke-width:0.24029851" />
    <path
       inkscape:connector-curvature="0"
       id="path127"
       d="m -155.91928,122.61339 c -0.40756,-0.1089 -0.44612,-0.13628 -1.12047,-0.79564 -0.8149,-0.79677 -1.02354,-0.95097 -1.64077,-1.21265 -0.41295,-0.17507 -0.48822,-0.23454 -0.77942,-0.61588 -0.63277,-0.82862 -1.9838,-1.70989 -3.13079,-2.04221 -0.28654,-0.083 -0.9649,-0.20547 -1.50748,-0.27211 -0.54257,-0.0667 -1.34527,-0.16486 -1.78378,-0.21824 -0.51473,-0.0627 -1.07493,-0.18058 -1.58067,-0.33272 -0.85101,-0.25599 -1.33237,-0.34889 -2.80774,-0.5419 -1.05449,-0.13795 -1.69615,-0.2749 -2.36395,-0.50454 -0.86858,-0.29868 -1.34548,-0.36478 -2.64941,-0.36722 -1.41733,-0.003 -1.25704,-0.0705 -1.90802,0.80725 -0.658,0.88718 -0.91676,1.08877 -1.39986,1.09055 -0.25911,9.5e-4 -0.45404,-0.0744 -1.38688,-0.53588 -0.59696,-0.29535 -1.60093,-0.7867 -2.23106,-1.09191 -0.74953,-0.36304 -1.18698,-0.6103 -1.26514,-0.71509 -0.0657,-0.0881 -0.44932,-0.55363 -0.85248,-1.03451 -0.59246,-0.70669 -0.78457,-0.98496 -1.00188,-1.45124 -0.2249,-0.48258 -0.35664,-0.66939 -0.80573,-1.14257 -1.10064,-1.15968 -1.57364,-1.60406 -1.98429,-1.86427 -0.23202,-0.14702 -0.57301,-0.36556 -0.75776,-0.48566 -0.43905,-0.2854 -0.96476,-0.44414 -2.10197,-0.63473 -0.75143,-0.12593 -1.05113,-0.20749 -1.55792,-0.42397 -0.68455,-0.29241 -0.93259,-0.36484 -2.06424,-0.60276 -0.41455,-0.0872 -1.07497,-0.27848 -1.46759,-0.42516 -0.69818,-0.26084 -1.30872,-0.40192 -2.55962,-0.59147 -0.52949,-0.0802 -0.74141,-0.15046 -1.44717,-0.47953 -1.78183,-0.83082 -2.76962,-1.11468 -4.63619,-1.33231 -3.56363,-0.4155 -3.30957,-0.35241 -4.26419,-1.05889 -0.40155,-0.29718 -1.04963,-0.70554 -1.44017,-0.90746 -0.39055,-0.20193 -0.85943,-0.49784 -1.04197,-0.65757 -0.27531,-0.24092 -0.43691,-0.3236 -0.94813,-0.48509 -0.44293,-0.13992 -0.75193,-0.28582 -1.09865,-0.51872 -0.29351,-0.19717 -0.68307,-0.39171 -0.99493,-0.49685 -0.2819,-0.0951 -0.79745,-0.31605 -1.14568,-0.49112 -0.63056,-0.317024 -1.09633,-0.533324 -3.04509,-1.414084 -0.72321,-0.32686 -1.15826,-0.56557 -1.47732,-0.8106 -0.94521,-0.7259 -1.93952,-1.33611 -3.24106,-1.98904 l -0.61806,-0.31005 v -4.40127 -4.40127 h 32.44851 32.44853 l -0.0287,0.46732 c -0.0158,0.25703 -0.0786,0.64369 -0.13957,0.85926 -0.0944,0.33375 -0.16581,0.44717 -0.48104,0.76388 -0.39909,0.40096 -0.33536,0.37326 -1.77702,0.7726 -0.69815,0.19338 -1.16529,0.42319 -1.71959,0.84594 -0.54527,0.41586 -0.75824,0.70355 -1.36149,1.83921 -0.27285,0.51366 -0.53584,0.98029 -0.58442,1.03697 -0.0486,0.0567 -0.34988,0.18431 -0.66957,0.28363 -0.40376,0.12544 -0.68238,0.25634 -0.91245,0.4287 -0.18216,0.13647 -0.75178,0.52788 -1.26583,0.8698 -0.51405,0.34192 -1.20529,0.82848 -1.53609,1.08124 -0.48587,0.37125 -0.64231,0.45964 -0.81403,0.45996 -0.53217,9.9e-4 -2.92223,0.12798 -3.42796,0.18213 -0.60826,0.0651 -0.86916,0.16453 -0.9865,0.37587 -0.0461,0.0831 -0.0756,0.37875 -0.0765,0.76818 -0.002,0.68537 0.0134,0.73202 0.48478,1.50747 0.11088,0.18241 0.29919,0.613454 0.41847,0.957884 0.44719,1.29133 0.94147,2.24134 1.44674,2.78065 0.17089,0.1824 0.58806,0.74297 0.92703,1.2457 1.15574,1.71405 1.8803,2.4509 3.62435,3.68575 0.74063,0.5244 1.21556,0.9351 2.63296,2.27688 l 0.89452,0.8468 0.48239,0.13523 c 0.26532,0.0744 0.78087,0.28248 1.14568,0.46246 0.36481,0.17997 1.79031,0.86927 3.16779,1.53177 1.37747,0.6625 2.69017,1.31304 2.91711,1.44566 0.22694,0.13261 0.72798,0.35522 1.11343,0.49469 0.38545,0.13947 1.06713,0.39663 1.51485,0.57148 0.44772,0.17484 1.03111,0.36047 1.29642,0.4125 0.60365,0.1184 2.43713,0.37842 7.05497,1.00053 7.57521,1.02052 10.78149,1.48115 10.95454,1.57376 0.0915,0.049 0.11029,0.13457 0.11029,0.50296 v 0.44393 l -0.37686,0.0653 c -1.16178,0.20119 -15.52134,2.25871 -17.74294,2.5423 -0.8291,0.10584 -1.63467,0.23002 -1.79014,0.27595 -0.37763,0.11156 -0.7747,0.10047 -1.2851,-0.0359 z m 4.61286,-1.5442 c 1.256,-0.15752 9.2179,-1.28766 11.03469,-1.56632 1.00936,-0.15481 1.23316,-0.2 1.19239,-0.24077 -0.0905,-0.0905 -11.20037,-1.54507 -12.44583,-1.6295 l -0.61069,-0.0414 -0.1292,0.34531 c -0.28297,0.75631 -0.85032,2.84398 -0.85032,3.12892 0,0.0824 0.0339,0.16313 0.0754,0.17934 0.0839,0.0328 0.0227,0.039 1.73359,-0.17558 z"
       style="fill:#76d03b;fill-opacity:1;stroke-width:0.06029883" />
  </g>
</svg>
